<svg xmlns="http://www.w3.org/2000/svg" viewBox="0 0 259.74 272.52"><defs><style>.cls-1{isolation:isolate;}.cls-2{opacity:0.5;}.cls-3{opacity:0.1;mix-blend-mode:multiply;}.cls-4{fill:#231f20;}.cls-5{fill:#9c6f44;}.cls-6{fill:#fff;}.cls-7{opacity:0.3;}</style></defs><title>Asset 5</title><g class="cls-1"><g id="Layer_2" data-name="Layer 2"><g id="Layer_1-2" data-name="Layer 1"><g class="cls-2"><g class="cls-3"><rect class="cls-4" x="43.16" y="55.93" width="172.65" height="172.65" rx="41.61" ry="41.61" transform="translate(-62.67 133.23) rotate(-45)"/></g><g class="cls-3"><path class="cls-4" d="M129.48,12a60.65,60.65,0,0,0-26.87,6.3,3.1,3.1,0,1,0,2.76,5.56,53.64,53.64,0,0,1,8.66-3.4h0l.71-.21h0l.23-.07h0l.19-.05h0l.2-.05h0l.19-.05h.08l.16,0H116l.16,0h.08l.19-.05h.09l.11,0h.12l.16,0H117l.16,0h.08l.15,0h.09l.15,0h.09l.15,0H118l.11,0h.13l.11,0h.13l.11,0h.9l.09,0h.15l.09,0h.42l.06,0h9.19a3.11,3.11,0,1,0,0-6.21ZM83.74,34a3.07,3.07,0,0,0-2.19.91L63.88,52.6A3.11,3.11,0,1,0,68.27,57L85.94,39.33a3.11,3.11,0,0,0-2.2-5.3ZM48.41,69.36a3.1,3.1,0,0,0-2.2.91L28.55,87.94a3.1,3.1,0,1,0,4.39,4.39l4.1-4.1h0l.18-.17h0l.09-.09h0l0,0h0l0,0,0-.06h0l.09-.08h0l0-.06h0c5.24-5.23,13-13,13-13a3.11,3.11,0,0,0-2.2-5.3ZM13.26,105.5a3.13,3.13,0,0,0-2.52,1.28A60.47,60.47,0,0,0,.06,132.25a3.1,3.1,0,0,0,2.55,3.57,3.05,3.05,0,0,0,.52.05,3.12,3.12,0,0,0,3.06-2.6c.16-1,.36-2,.58-3h0a2,2,0,0,1,.05-.24h0v0h0v0h0l0-.15h0v0h0v0h0v0h0l0-.11h0v0h0v0H7v0H7v0H7l0-.1H7v-.12H7v0H7v-.06h0v-.17l0-.09v-.44h0v0h0v0h0v-.12h0l0-.09h0V128h0v-.08h0l0-.09h0v-.08h0v0h0l0-.09h0v0h0v0h0v0h0v0h0l0-.09h0v0h0v0h0l0,0h0l0-.14h0v0h0v0h0l0-.13h0v-.05h0v0h0l0,0h0l0-.14h0v0h0l0,0h0l.05-.19h0v0h0v0h0l.05-.14h0v0H8v0H8l0-.18H8l0,0H8v-.05h0l.06-.18h0l0,0h0c0-.07,0-.15.07-.23h0l0,0h0l.06-.19h0l0,0h0c0-.08,0-.15.07-.23h0l0,0h0l.06-.18h0l0,0h0c0-.07,0-.15.08-.22h0c0-.1.07-.19.1-.28h0c0-.07,0-.15.08-.23h0l0,0h0l.08-.23h0l.09-.23h0a2,2,0,0,1,.08-.22H9l0,0H9l0,0H9a1.34,1.34,0,0,1,.07-.18h0v0h0a2.09,2.09,0,0,1,.08-.23h0l0,0h0a1.34,1.34,0,0,0,.07-.18h0l0,0h0l.09-.22h0l0-.05h0a1.34,1.34,0,0,0,.07-.18h0l0,0h0l0,0h0l.06-.13h0v0h0v0h0a1.34,1.34,0,0,1,.07-.18h0l0,0h0l0,0h0l.06-.14h0v0h0v0h0l0,0h0l.06-.13h0l0,0h0l0,0h0l.06-.13h0l0,0h0l0,0h0l0,0h0l.06-.13h0l0,0h0l0,0h0l0,0h0l0-.09h0l0,0h0l0,0h0l0,0h0l.06-.13h0l0,0h0l0,0h0l0,0h0l0-.09h0l0,0h0l0,0h0l0,0h0l0,0h0l0-.09h0v0h0v0h0v0h0l0-.08h0l0,0h0l0,0v0l0,0h0l0,0h0l0,0h0l0,0v-.06l0,0h0l0,0h0l0,0h0l0,0h0v0h0v0h0v0h0l0,0h0l0-.09h0v0h0v0h0v0l0,0h0l0,0h0v0h0v0h0v0l0,0h0l0-.08h0v0h0l0,0v0l0,0v0l0,0h0l0,0h0l0,0h0l0,0v-.09h0l0,0h0l0,0h0v-.13l0,0h0l0,0h0l0,0h0l0,0h0v-.09l0,0h0l0,0h0v0h0l0,0h0l0,0v-.06l0,0h0l0,0h0v0h0v0h0l0,0h0v0h0l0,0v-.1l0,0h0l0,0h0l0,0h0l0,0V116l0,0v-.1l0,0h0v0l0,0v-.1l0,0h0l0,0v-.14l0,0v0l0,0h0v-.09l0,0v-.06l0,0v0l0,0V115l0,0v0h0l0,0h0v0h0l0,0v-.06l0,0v0l0,0h0l0,0v-.06l0,0v-.06l0,0v0l0,0h0v0h0l0,0h0v0h0v0h0l0,0h0l0,0h0l0,0v-.08h0l0,0h0l0,0h0l0,0v0l0,0v-.06l0,0v0l0,0v0l0,0v0l0,0v0l0,0v-.06l0,0h0l.05-.08h0l0,0v-.06l0,0h0l0,0h0l0,0h0l0,0h0l0,0h0v0h0l0,0h0l0-.08h0l0,0h0l0,0h0l0,0h0l0,0h0l0-.08h0l0,0h0l0,0h0l0,0h0l.06-.08h0l0,0h0l0,0h0l0,0h0l0,0h0l.05-.09h0l0,0h0l0,0h0l0,0h0l.08-.12h0l0,0h0l0,0h0l.08-.12h0l0,0h0l0,0h0l0,0h0l.09-.13h0l0,0h0l0,0h0c.25-.36.5-.71.76-1.06a3.12,3.12,0,0,0-2.51-4.94ZM4.79,155.78a3.1,3.1,0,0,0-3,4,59.71,59.71,0,0,0,13.85,23.88,3.11,3.11,0,1,0,4.52-4.27h0l0,0,0,0v0h0v0l0,0,0,0,0,0h0l0,0,0,0v0h0v0l0,0,0,0h0l0,0h0l0,0,0,0h0v0l0,0v0h0l0,0v0l0,0h0l0,0,0,0v0l0,0h0v0l0,0,0,0h0l0,0v0l0,0h0l0,0h0l0,0v0l0,0h0l0,0v0l0,0h0l0,0,0,0,0,0v0l0,0h0l0,0v0l0,0,0,0h0l0,0v0h0l0,0h0l0,0v0l0,0h0l0,0v0l0,0,0,0h0l0,0,0,0,0,0,0,0v0h0v0l0,0v0l0,0h0l0,0,0,0v0l0,0v0l0,0h0v0l0,0v0h0v0l0,0v0l0,0,0,0,0,0h0v0l0,0v0l0,0h0l0,0v0l0,0v0l0,0h0v0l0,0v0l0,0v0h0v0l0,0h0l0,0,0,0,0,0v0l0,0v0h0v0l0,0v0h0l0,0,0,0,0,0h0l0,0v0l0,0h0l0,0v0h0v0h0l0-.05h0l0,0v0l0,0h0l0,0h0v0l0,0v0h0l0,0v0l0,0h0v0l0,0v0h0l0,0h0l0,0h0l0-.05h0v0h0l0,0h0l0,0v0l0,0h0L17,175.7h0l0,0h0l0,0h0v0h0l0,0h0l-.08-.1h0l0,0h0l0,0h0l0,0h0l0,0h0l-.07-.09h0l0,0h0l0,0h0l0,0h0l0,0h0l-.07-.1h0l0,0h0l0,0h0l0,0h0l-.12-.16h0l0,0h0l0,0h0a1.83,1.83,0,0,1-.13-.16h0l0,0h0l0,0h0l-.12-.16h0l0,0h0l0,0h0l-.12-.17h0l0,0h0l0,0h0l-.15-.21h0l-.2-.28h0A54,54,0,0,1,7.76,158a3.09,3.09,0,0,0-3-2.21Zm30.86,40.4a3.11,3.11,0,0,0-2.2,5.3l17.67,17.67a3.11,3.11,0,0,0,4.4-4.39L43.43,202.68h0l-.38-.38v0L43,202.2l0,0h0v0l0,0,0,0,0,0h0l-5-4.95a3.07,3.07,0,0,0-2.19-.91ZM71,231.51a3.11,3.11,0,0,0-2.2,5.3l17.67,17.67a3.11,3.11,0,1,0,4.39-4.4L73.17,232.41a3.11,3.11,0,0,0-2.19-.9Zm39.77,31.65a3.11,3.11,0,0,0-1,6A60.21,60.21,0,0,0,137.19,272a3.1,3.1,0,0,0-.39-6.18,2.61,2.61,0,0,0-.4,0h-.31c-1.75.21-3.51.34-5.27.39H126a54.62,54.62,0,0,1-14.19-2.86,3.24,3.24,0,0,0-1-.17Zm69.38-23.79a3.09,3.09,0,0,0-2.2.91l-10.16,10.16h0l0,0h0l0,0,0,0v0h0v0h0v0h0l0,0h0l0,0h0l0,0h0l0,0h0l0,0h0l0,0h0l0,0h0l0,0h0l0,0h0l0,0h0l0,0h0v0h0v0h0l0,0h0l0,0h0l0,0h0l0,0h0l0,0h0l0,0h0l0,0h0l0,0h0l-.1.09h0l0,0h0l0,0h0l0,0h0l0,0h0l0,0h0v0h0v0h0l0,0h0v0h0v0h0v0h0l0,0h0v0h0v0h0l0,0h0l0,0h0l0,0h0l0,0h0l0,0h0v0h0l0,0h0v0h0l0,0h0l0,0h0l0,0h0l0,0h0l0,0h0l0,0h0l0,0h0l0,0h0l0,0h0v0h0l0,0h0l0,0h0v0h0l0,0h0v0h0l0,0h0l0,0h0v0h0l0,0h0v0h0l0,0h0l0,0h0v0h0l0,0h0v0h0l0,0h0v0l0,0,0,0h0l0,0,0,0h0l0,0h0v0h0l0,0h0l0,0h0l0,0h0l0,0h0l0,0h0l0,0h0l0,0h0l0,0h0l0,0h0v0h0v0h0l0,0h0l0,0h0l0,0h0l0,0h0l0,0h0l0,0h0l-.19.16h0l0,0h0l0,0h0l0,0h0l0,0h0l0,0h0l0,0h0l0,0h0l0,0h0l0,0h0l0,0h0l0,0h0l0,0h0l0,0h0l0,0h0l0,0h0l0,0h0l0,0h0c-1.27,1-2.59,2-3.93,2.9a3.11,3.11,0,0,0,3.46,5.16,61.14,61.14,0,0,0,9.12-7.5l10.16-10.16a3.11,3.11,0,0,0-2.19-5.31ZM215.46,204a3.09,3.09,0,0,0-2.2.91L195.6,222.62A3.1,3.1,0,1,0,200,227l17.67-17.67a3.11,3.11,0,0,0-2.2-5.3Zm34.18-37.43a3.09,3.09,0,0,0-2.72,1.6,54.59,54.59,0,0,1-6,8.8h0l-.08.09h0l-.06.07h0l-.06.07h0l0,0h0l-.06.06h0l-.06.06h0l-.08.09h0l-.05.06h0l-.05.06h0v0h0l0,0h0l0,0h0l0,0h0v0h0l0,0h0v0h0l-.05.06h0l0,0h0l0,0h0l0,0h0l0,0h0l0,0h0l0,0h0l0,0h0l0,0h0v0h0v0l0,0h0v0h0l0,0,0,0h0v0h0l0,0,0,0h0v0h0l0,0v0h0l0,0h0l0,0v0h0v0l0,0h0l0,0h0v0h0l0,0h0v0l0,0h0v0h0l0,0h0l0,0v0h0l0,0h0l0,0h0l0,0h0l0,0h0l0,0h0l0,0h0l0,0h0l0,0h0l0,0h0l0,0h0l0,0h0l0,0h0l0,0h0l0,0h0l0,0h0l0,0h0l0,0h0l0,0h0l0,0h0l0,0h0l0,0h0l0,0h0l0,0h0l0,0h0l0,0h0l0,0h0l0,0h0l0,0h0l0,0h0l0,0h0l0,0h0l-.05.06h0l0,0h0l0,0h0l0,0h0l0,0h0l0,0h0l0,0h0l0,0h0l0,0h0l0,0h0l0,0h0l0,0h0l0,0h0l0,0h0l0,0h0l0,0h0l0,0h0l-.29.29h0l-.33.33h0l0,0h0l0,0h0l-.05,0h0l-.1.1h0l-.1.11h0l0,.05h0l0,0h0l0,0h0l0,0,0,0h0l0,0h0l0,0h0l-.05.05,0,0-.05.05,0,0v0h0l0,0,0,0,0,.05h0l0,0-.08.08h0l0,0h0l0,0h0l0,0h0l0,0h0l0,0-.09.09h0l-.05,0h0l-4.8,4.8a3.11,3.11,0,1,0,4.39,4.4l6.74-6.75a60.28,60.28,0,0,0,10.3-13.72,3.1,3.1,0,0,0-2.72-4.6Zm2-51a3.15,3.15,0,0,0-1.27.27,3.1,3.1,0,0,0-1.56,4.11c.06.15.13.3.2.45h0l0,.05h0l.07.18h0v0h0v0h0l0,.13h0v0h0l0,0h0l0,.09h0l0,0h0l0,0h0l0,0h0l0,0h0l0,0h0v0h0v0h0v.08h0l0,0h0l0,0v0h0v0h0v.09h0v.12h0v.28h0l0,.06h0v.11h0v0h0l0,.06h0l0,0h0v0h0v0h0v0h0l.05.11h0v0h0l0,0h0l.06.15h0v0h0v0h0a1.07,1.07,0,0,0,.07.19h0a54.43,54.43,0,0,1,3.37,21,3.11,3.11,0,0,0,3,3.23h.12a3.11,3.11,0,0,0,3.11-3,60.76,60.76,0,0,0-5.26-27.1,3.1,3.1,0,0,0-2.83-1.83ZM218.42,77.22a3.11,3.11,0,0,0-2.19,5.31l15.69,15.7h0l0,0v0h0v0l0,0v0h0l0,0h0l.06.06h0l.09.09h0v0h0l1.62,1.63a3.12,3.12,0,0,0,2.2.9,3.11,3.11,0,0,0,2.19-5.3L220.62,78.13a3.13,3.13,0,0,0-2.2-.91ZM183.09,41.89a3.11,3.11,0,0,0-2.21,5.3l11.69,11.68,0,0,0,0h0l0,0,0,0h0v0h0c3.21,3.22,5.82,5.82,5.82,5.82A3.1,3.1,0,1,0,203,60.47L185.29,42.8a3.15,3.15,0,0,0-2.2-.91ZM141.16,13.2a3.1,3.1,0,0,0-.64,6.14A53.89,53.89,0,0,1,163,29.81a3.1,3.1,0,0,0,4.35-.52,3.09,3.09,0,0,0-.51-4.36,60.43,60.43,0,0,0-25-11.67,3.36,3.36,0,0,0-.63-.06Z"/></g></g><path class="cls-5" d="M129.47,0a60.69,60.69,0,0,0-26.88,6.3,3.11,3.11,0,1,0,2.77,5.56A53.54,53.54,0,0,1,114,8.46h0l.71-.21h0l.24-.07h0l.19-.05h0l.19,0h0l.2,0h.08l.15,0H116l.15,0h.09l.19,0h.08l.12,0h.12l.15,0H117l.15,0h.09l.15,0h.09l.15,0h.09l.14,0H118l.11,0h.14l.1,0h.14l.1,0h.9l.1,0h.14l.1,0h.42l.06,0h9.19a3.11,3.11,0,1,0,0-6.21ZM83.73,22a3.09,3.09,0,0,0-2.2.91L63.86,40.6a3.11,3.11,0,0,0,4.4,4.4L85.92,27.33A3.11,3.11,0,0,0,83.73,22ZM48.4,57.36a3.09,3.09,0,0,0-2.2.91L28.53,75.94a3.11,3.11,0,0,0,2.2,5.3,3.07,3.07,0,0,0,2.19-.91l4.1-4.1h0l.18-.17h0l.08-.09h0l.05,0h0l0,0,0-.06h0l.09-.08h0l.05-.06h0l13-13a3.11,3.11,0,0,0-2.19-5.3ZM13.24,93.5a3.11,3.11,0,0,0-2.51,1.28A60.49,60.49,0,0,0,0,120.25a3.1,3.1,0,0,0,2.55,3.57,3.15,3.15,0,0,0,.52.05,3.11,3.11,0,0,0,3.06-2.6c.17-1,.36-2,.58-3h0a2,2,0,0,0,0-.24h0v0h0v0h0l0-.15h0v0h0v0h0v0h0l0-.11h0v0h0v0h0v0H7v0H7l0-.1H7v-.12H7v0H7v-.06H7v-.17l0-.09v-.44h0l0,0h0v0h0v-.12h0l0-.09h0V116h0v-.08h0l0-.09h0v-.08h0v0h0l0-.09h0v0h0v0h0v0h0v0h0l0-.09h0v0h0v0h0v0h0l0-.14h0v0h0v0h0l0-.13h0v-.05h0v0h0v0h0l0-.14h0l0,0h0v0h0l.06-.19h0v0h0l0,0h0l0-.14h0v0h0v0H8L8,113.7H8v0H8l0-.05H8l.06-.18h0v0h0c0-.07.05-.15.08-.23h0v0h0l.07-.19h0v0h0l.08-.23h0v0h0a1.34,1.34,0,0,0,.07-.18h0v0h0a2,2,0,0,0,.08-.22h0c0-.1.07-.19.1-.28h0a1.55,1.55,0,0,0,.08-.23h0v0h0l.09-.23h0a2.09,2.09,0,0,1,.08-.23h0l.09-.22H9v0H9l0,0H9l.07-.18h0l0,0h0l.09-.23h0v0h0a1.34,1.34,0,0,1,.07-.18h0v0h0l.09-.22h0v-.05h0l.08-.18h0l0,0h0v0h0l.05-.13h0l0,0h0l0,0h0l.07-.18h0v0h0l0,0h0l.06-.14h0l0,0h0l0,0h0l0,0h0l.05-.13h0v0h0v0h0l.05-.13h0l0,0h0l0,0h0l0,0h0l.06-.13h0l0,0h0l0,0h0l0,0h0l0-.09h0l0,0h0l0,0h0l0,0h0l.06-.13h0l0,0h0v0h0l0,0h0l0-.09h0v0h0v0h0v0h0l0,0h0l0-.09h0l0,0h0l0,0h0l0,0h0l0-.08h0v0h0v-.08h0l0,0h0l0,0h0l0,0v0l0,0v0h0v0h0v0h0l0,0h0l0,0h0l0,0h0l0,0h0l0,0h0l0-.09h0l0,0h0l0,0h0l0,0v0l0,0h0l0,0h0l0,0h0l0,0h0l0,0v0h0l0-.08h0l0,0h0v-.09l0,0h0l0,0h0l0,0h0v-.09l0,0h0l0,0h0l0,0h0l0,0v0l0,0v-.09h0l0,0h0l0,0h0v0h0v0l0,0v0l0,0h0l0,0h0l0,0h0v0h0v0l0,0v0l0,0h0l0,0h0l0,0h0v0h0v0h0l0,0h0l0,0v0l0,0v0l0,0v0h0v0h0l0,0h0l0,0v0l0,0v-.1l0,0v0l0,0h0l0,0v-.1l0,0v0h0l0,0v-.08l0,0v-.08l0,0h0l0,0v-.14l0,0v0l0,0v-.06l0,0v-.09h0l0,0h0l0,0h0v0l0,0v-.06l0,0h0l0,0v0l0,0v-.06l0,0v-.06l0,0h0l0,0h0v0h0v0h0l0,0h0l0,0h0l0,0h0l0,0v-.06l0,0h0v0h0l0,0h0l0,0v-.06l0,0v-.06l0,0v0l0,0v0l0,0v0l0,0v0l0,0v0l0,0h0l.05-.08h0v0l0,0v0h0l0,0h0l0,0h0l0,0h0l0,0h0l0,0h0v0h0L14,101h0l0,0h0l0,0h0l0,0h0l0,0h0l.05-.08h0l0,0h0l0,0h0l0,0h0l.05-.08h0l0,0h0l0,0h0l0,0h0l0,0h0l.06-.09h0l0,0h0l0,0h0l0,0h0l.08-.12h0l0,0h0l0,0h0l.08-.12h0l0,0h0l0,0h0l0,0h0l.08-.13h0l0,0h0l0,0h0c.24-.36.5-.71.75-1.06a3.11,3.11,0,0,0-2.51-4.94ZM4.78,143.78a3.1,3.1,0,0,0-3,4,59.62,59.62,0,0,0,13.86,23.88,3.07,3.07,0,0,0,2.26,1,3.1,3.1,0,0,0,2.26-5.24h0l0,0v0l0,0h0l0,0,0,0,0,0,0,0h0l0,0v0l0,0h0l0,0,0,0v0h0l0,0h0l0,0v0h0l0,0v0l0,0h0v0l0,0v0h0l0,0,0,0v0l0,0h0l0,0v0l0,0h0v0l0,0,0,0h0l0,0h0l0,0v0l0,0h0v0l0,0,0,0h0l0,0v0l0,0v0l0,0h0v0l0,0,0,0v0h0v0l0,0h0l0,0h0l0,0,0,0,0,0h0l0,0v0l0,0v0h0v0l0,0,0,0v0l0,0h0l0,0v0l0,0,0,0h0l0,0v0l0,0,0,0,0,0,0,0h0l0,0v0l0,0h0l0,0v0l0,0v0l0,0,0,0h0l0,0v0l0,0v0h0v0l0,0v0l0,0,0,0h0l0,0v0l0,0v0l0,0h0l0,0v0l0,0h0l0,0v0l0,0v0l0,0v0l0,0h0l0,0v0l0,0h0l0,0,0,0v0h0v0l0,0v0h0v0l0,0h0l0,0h0l0-.05h0v0l0,0v0h0l0,0h0l0,0v0l0,0h0l0,0v0l0,0h0l0,0v0l0,0h0l0,0h0l0,0h0l0-.05h0l0,0h0l0,0h0l0,0v0l0,0h0l-.1-.12h0l0,0h0l0,0h0l0,0h0l0,0h0l-.07-.1h0l0,0h0l0,0h0l0,0h0l0,0h0l-.08-.09h0l0,0h0l0,0h0l0,0h0l0,0h0l-.08-.1h0l0,0h0l0,0h0l0,0h0l-.12-.16h0l0,0h0l0,0h0l-.12-.16h0l0,0h0l0,0h0l-.12-.16h0l0,0h0l0,0h0l-.13-.17h0l0,0h0l0,0h0l-.15-.21h0c-.06-.09-.13-.18-.19-.28h0A53.53,53.53,0,0,1,7.75,146a3.1,3.1,0,0,0-3-2.21Zm30.85,40.4a3.11,3.11,0,0,0-2.2,5.3L51.1,207.15a3.11,3.11,0,0,0,4.4-4.39L43.42,190.68h0L43,190.3v0l-.09-.08,0,0h0v0l0,0,0,0,0,0h0l-5-4.95a3.09,3.09,0,0,0-2.2-.91ZM71,219.51a3.11,3.11,0,0,0-2.19,5.3l17.66,17.67a3.11,3.11,0,0,0,4.4-4.4L73.16,220.41a3.12,3.12,0,0,0-2.2-.9Zm39.77,31.65a3.11,3.11,0,0,0-1,6A60.16,60.16,0,0,0,137.17,260a3.1,3.1,0,0,0-.39-6.18,2.75,2.75,0,0,0-.4,0h-.31c-1.75.21-3.5.34-5.26.39h-4.87a54.53,54.53,0,0,1-14.19-2.86,3.3,3.3,0,0,0-1-.17Zm69.38-23.79a3.07,3.07,0,0,0-2.19.91l-10.17,10.16h0l0,0h0l0,0v0l0,0h0l0,0h0l0,0h0l0,0h0v0h0v0h0v0h0v0h0v0h0l0,0h0l0,0h0l0,0h0l0,0h0l0,0h0l0,0h0l0,0h0l0,0h0l0,0h0v0h0v0h0l0,0h0l0,0h0l0,0h0l0,0h0l-.09.09h0l0,0h0l0,0h0l0,0h0l0,0h0l0,0h0l0,0h0l0,0h0l0,0h0l0,0h0l0,0h0v0h0v0h0l0,0h0l0,0h0l0,0h0v0h0l0,0h0l0,0h0l0,0h0l0,0h0l0,0h0l0,0h0l0,0h0l0,0h0l0,0h0l0,0h0l0,0h0l0,0h0l0,0h0v0h0v0h0l0,0h0v0h0l0,0h0l0,0h0l0,0h0l0,0h0v0h0l0,0h0l0,0h0l0,0h0l0,0h0l0,0h0l0,0h0l0,0h0l0,0h0l0,0h0l0,0h0l0,0,0,0,0,0h0l0,0v0h0l0,0h0l0,0h0l0,0h0l0,0h0l0,0h0v0h0v0h0l0,0h0v0h0l0,0h0v0h0v0h0l0,0h0l0,0h-.05l0,0h0l0,0h0l0,0h0l0,0h0l0,0h0l-.18.16h0l0,0h0l0,0h0l0,0h0l0,0h0l0,0h0l0,0h0l0,0h0l0,0h0l0,0h0l0,0h0l0,0h0l0,0h0l0,0h0l0,0h0l0,0h0l0,0h0l0,0h0q-1.92,1.54-3.94,2.9a3.11,3.11,0,0,0,3.47,5.16,62.17,62.17,0,0,0,9.12-7.5l10.16-10.16a3.11,3.11,0,0,0-2.2-5.31ZM215.44,192a3.07,3.07,0,0,0-2.19.91l-17.67,17.67a3.11,3.11,0,0,0,2.2,5.3A3.07,3.07,0,0,0,200,215l17.67-17.67a3.11,3.11,0,0,0-2.2-5.3Zm34.18-37.43a3.12,3.12,0,0,0-2.72,1.6,53.33,53.33,0,0,1-6,8.8h0l-.08.09h0l-.06.07h0l-.05.07h0v0h0l-.06.06h0l-.05.06h0l-.08.09h0l-.06.06h0l-.06.06h0l0,0h0l0,0h0v0h0l0,0h0l0,0h0l0,0h0l0,0h0l0,.06h0v0h0l0,0h0v0h0l0,0h0v0h0l0,0h0v0h0l0,0h0v0h0v0l0,0h0l0,0h0l0,0v0h0v0h0l0,0,0,0h0v0h0l0,0,0,0h0v0h0l0,0v0h0v0l0,0h0v0h0l0,0h0l0,0h0v0l0,0h0l0,0h0l0,0h0l0,0v0h0l0,0h0l0,0h0l0,0h0l0,0h0l0,0h0l0,0h0l0,0h0l0,0h0l0,0h0l0,0h0l0,0h0l0,0h0l0,0h0l0,0h0l0,0h0l0,0h0l0,0h0l0,0h0l0,0h0l0,0h0l0,0h0l0,0h0l0,0h0l0,0h0l0,0h0l0,0h0l0,0h0l0,0h0l0,0h0l0,0h0l0,0h0l0,.06h0l0,0h0l0,0h0l0,0h0l0,0h0l0,0h0l0,0h0l0,0h0l0,0h0l0,0h0l0,0h0l0,0h0l0,0h0l0,0h0l0,0h0l0,0h0l0,0h0l-.29.29h0l-.32.33h0l0,0h0l0,0h0l0,0h0l-.1.1h0l-.11.11h0l-.05.05h0l0,0h0l0,0h0l0,0,0,0h0l0,0h0l0,0h0l-.06.05v0l0,.05,0,0v0h0l0,0v0l-.05.05h0l0,0-.08.08h0l0,0h0l0,0h0l0,0h0l0,0h0l0,0-.08.09h0l-.05,0h0l-4.8,4.8a3.11,3.11,0,0,0,4.4,4.4l6.74-6.75a60.57,60.57,0,0,0,10.3-13.72,3.11,3.11,0,0,0-1.24-4.22,3.06,3.06,0,0,0-1.49-.38Zm2-51a3.19,3.19,0,0,0-1.27.27,3.12,3.12,0,0,0-1.56,4.11l.2.45h0l0,.05h0l.08.18h0l0,0h0l0,0h0l.06.13h0l0,0h0v0h0l0,.09h0v0h0v0h0v0h0l0,0h0l0,0h0l0,0h0l0,0h0v.08h0v0h0v.08h0v0h0l0,0v0l0,0h0v.12h0v0l0,0v.2h0l0,.06h0v.11h0v0h0l0,.06h0v0h0l0,0h0v0h0v0h0l0,.11h0v0h0v0h0l.06.15h0v0h0v0h0c0,.07.05.13.07.19h0a54.24,54.24,0,0,1,3.37,21,3.12,3.12,0,0,0,3,3.23h.12a3.1,3.1,0,0,0,3.1-3,60.76,60.76,0,0,0-5.25-27.1,3.11,3.11,0,0,0-2.84-1.83ZM218.41,65.22a3.11,3.11,0,0,0-2.2,5.31l15.7,15.7h0l0,0,0,0h0l0,0,0,0,0,0h0l0,0h0l.06.06h0l.09.09h0l0,0h0l1.63,1.63a3.11,3.11,0,0,0,4.39-4.4L220.6,66.13a3.11,3.11,0,0,0-2.19-.91ZM183.07,29.89a3.11,3.11,0,0,0-2.2,5.3l11.68,11.68,0,0,0,0h0l0,0,0,0h0l0,0h0l5.81,5.82a3.11,3.11,0,1,0,4.4-4.39L185.27,30.8a3.13,3.13,0,0,0-2.2-.91ZM141.14,1.2a3.1,3.1,0,0,0-.63,6.14A54,54,0,0,1,163,17.81a3,3,0,0,0,1.91.66,3.1,3.1,0,0,0,1.92-5.54,60.37,60.37,0,0,0-25-11.67,3.36,3.36,0,0,0-.63-.06Z"/><rect class="cls-5" x="43.14" y="43.93" width="172.65" height="172.65" rx="41.61" ry="41.61" transform="translate(-54.19 129.7) rotate(-45)"/><path class="cls-6" d="M141,136.55c-1.75,3.64-4.41,6.13-8.5,6.7a3.45,3.45,0,0,1-2.26-.38c-1.24-.88-.59-2.67,1.1-3.25,5.2-1.79,6.48-3.56,6.69-9.08.11-2.72.31-5.44.52-8.85-2.33,2-4.32,3.53-6.1,5.27-15.62,15.22-22.35,33.8-20.88,55.47a47.16,47.16,0,0,1-.19,6.72c-.1,1.35-.64,2.62-2.38,2.35s-1.45-1.55-1.44-2.8c.06-5-.13-10.11.06-15.15.77-20.55,9.06-37.59,24.29-51.31,1.37-1.24,2.85-2.35,4.21-3.6s2.74-2.24,4.26-1.26c1.13.74,1.7,2.35,2.55,3.61l3.47-5.33c-3.39-2.06-6.72-4-10-6.08-1.23-.78-2.13-2-.91-3.41s2.29-.5,3.33.44c2.67,2.41,5.71,4.4,9.32,4.59a43.84,43.84,0,0,0,8.8-.87c8.08-1.19,16.15-2.48,24.22-3.73,2.16-.33,4-1.16,5-3.24,1.56-3.13.87-4.87-2.39-5.87-1.6-.49-3.18-1.1-4.82-1.46-4-.89-7-2.6-6.23-7.65-2.93,0-5.58.15-8.19-.07a5.49,5.49,0,0,1-3.2-1.54c-1.6-1.67-2.86-3.66-4.34-5.46-4.82-5.89-11-8.76-18.93-8.63.2.45.41.7.41.94,0,.94-.05,1.87-.08,2.81-.95-.11-2.14.1-2.8-.39-2.63-2-5.43-2.86-8.53-1.58a11.79,11.79,0,0,0-3.69,2.6c-8.84,8.76-17.59,17.61-26.44,26.36-3.3,3.27-4.45,7-2.85,11.38,1.67,4.53,5.4,6.4,9.94,6.72a16,16,0,0,0,14.79-6.88A66.21,66.21,0,0,0,128.42,97c.46-1.3,1-2.82,2.81-2.18s1.38,2,.89,3.42a70.15,70.15,0,0,1-10.61,19.3c-6.11,7.86-15.58,10-25.65,5.59-2.85,3.82-6.15,7.5-8.61,11.67-5.16,8.74-9.88,17.75-14.77,26.65-.31.56-.35,1.37-.79,1.72a15.24,15.24,0,0,1-2.62,1.39c-.3-.95-1.09-2.1-.81-2.83,1.2-3.13,2.66-6.17,4.13-9.19a149,149,0,0,1,20-31c.21-.24.36-.52.22-.32-1.06-2.94-2.34-5.46-2.85-8.13a12.65,12.65,0,0,1,3.82-11.64q13.76-13.83,27.58-27.6a12.92,12.92,0,0,1,8.6-3.76c3.73-.26,7.47-1.13,11.18-1a23.92,23.92,0,0,1,19.39,10.5c2.74,3.87,5.64,5.67,10.47,5.13,4.36-.49,8.82-.14,13.23-.12s6.53,2.21,6.62,6.5c.07,3.13.09,6.26,0,9.39-.17,5.62-3.3,9.15-8.8,10-9.5,1.48-19,2.91-28.5,4.42a3.91,3.91,0,0,0-2.22,1.12c-4.11,4.88-6.88,10.54-9.56,16.74,3.52.29,6.76.51,10,.83,8.22.82,13.9,6.56,14.77,14.85.11,1.11.29,2.22.46,3.41,1.85.15,3.61.2,5.34.43,5.55.77,8.48,5.22,7,10.62-.61,2.24-1.32,4.45-2,6.67-1.53,5.14-5.1,7.78-10.3,8.37-4.62.53-9.25,1-13.87,1.48-2.81.31-3.72,1.95-2.49,4.49a32.26,32.26,0,0,1,2.24,4.77c.23.8-.49,1.87-.77,2.82-.9-.44-2.13-.65-2.62-1.37a35.21,35.21,0,0,1-2.71-5.34,6.47,6.47,0,0,1,5.19-9.15c4.77-.57,9.56-1.05,14.35-1.5,3.91-.37,6.24-2.15,7.37-5.83.64-2.06,1.28-4.12,1.84-6.21.93-3.46-.56-5.68-4.11-6.07-1.43-.16-2.89-.08-4.33-.22a4,4,0,0,1-4-3.53c-.36-2-.52-4-1-5.92a11.63,11.63,0,0,0-10.21-8.87C148.23,137.06,144.63,136.83,141,136.55Zm45.84-42.17c0-1.51.27-2.76-.08-3.81-.29-.86-1.25-2-2-2.11-2.66-.25-5.36-.1-8.81-.1.75,1.43,1,2.81,1.7,3.08C180.47,92.56,183.47,93.34,186.81,94.38Z"/><path class="cls-6" d="M150.13,147.41c1.8.05,2.86,1,2.89,2.77a2.51,2.51,0,0,1-2.57,2.82,2.54,2.54,0,0,1-3-2.62A2.6,2.6,0,0,1,150.13,147.41Z"/><path class="cls-6" d="M145,87.44c.2-1.86,1.12-3,2.91-2.93a2.84,2.84,0,0,1,0,5.68C146.07,90.21,145.19,89.06,145,87.44Z"/><g class="cls-7"><path class="cls-6" d="M141,139.8c-1.75,3.64-4.41,6.13-8.5,6.7a3.45,3.45,0,0,1-2.26-.38c-1.24-.88-.59-2.67,1.1-3.25,5.2-1.79,6.48-3.56,6.69-9.08.11-2.72.31-5.44.52-8.85-2.33,2-4.32,3.53-6.1,5.27-15.62,15.22-22.35,33.8-20.88,55.47a47.16,47.16,0,0,1-.19,6.72c-.1,1.35-.64,2.62-2.38,2.35s-1.45-1.55-1.44-2.8c.06-5-.13-10.11.06-15.15.77-20.55,9.06-37.59,24.29-51.31,1.37-1.24,2.85-2.35,4.21-3.6s2.74-2.24,4.26-1.26c1.13.74,1.7,2.35,2.55,3.61l3.47-5.33c-3.39-2.06-6.72-4-10-6.08-1.23-.78-2.13-2-.91-3.41s2.29-.5,3.33.44c2.67,2.41,5.71,4.4,9.32,4.59a43.84,43.84,0,0,0,8.8-.87c8.08-1.19,16.15-2.48,24.22-3.73,2.16-.33,4-1.16,5-3.24,1.56-3.13.87-4.87-2.39-5.87-1.6-.49-3.18-1.1-4.82-1.46-4-.89-7-2.6-6.23-7.65-2.93,0-5.58.15-8.19-.07a5.49,5.49,0,0,1-3.2-1.54c-1.6-1.67-2.86-3.66-4.34-5.46-4.82-5.89-11-8.76-18.93-8.63.2.45.41.7.41.94,0,.94-.05,1.87-.08,2.81-.95-.11-2.14.1-2.8-.39-2.63-2-5.43-2.86-8.53-1.58a11.79,11.79,0,0,0-3.69,2.6c-8.84,8.76-17.59,17.61-26.44,26.36-3.3,3.27-4.45,7-2.85,11.38,1.67,4.53,5.4,6.4,9.94,6.72a16,16,0,0,0,14.79-6.88,66.21,66.21,0,0,0,9.58-17.69c.46-1.3,1-2.82,2.81-2.18s1.38,2,.89,3.42a70.15,70.15,0,0,1-10.61,19.3c-6.11,7.86-15.58,10-25.65,5.59-2.85,3.82-6.15,7.5-8.61,11.67-5.16,8.74-9.88,17.75-14.77,26.65-.31.56-.35,1.37-.79,1.72a15.24,15.24,0,0,1-2.62,1.39c-.3-.95-1.09-2.1-.81-2.83,1.2-3.13,2.66-6.17,4.13-9.19a149,149,0,0,1,20-31c.21-.24.36-.52.22-.32-1.06-2.94-2.34-5.46-2.85-8.13a12.65,12.65,0,0,1,3.82-11.64Q107.37,90.78,121.19,77a12.92,12.92,0,0,1,8.6-3.76c3.73-.26,7.47-1.13,11.18-1a23.92,23.92,0,0,1,19.39,10.5c2.74,3.87,5.64,5.67,10.47,5.13,4.36-.49,8.82-.14,13.23-.12s6.53,2.21,6.62,6.5c.07,3.13.09,6.26,0,9.39-.17,5.62-3.3,9.15-8.8,10-9.5,1.48-19,2.91-28.5,4.42a3.91,3.91,0,0,0-2.22,1.12c-4.11,4.88-6.88,10.54-9.56,16.74,3.52.29,6.76.51,10,.83,8.22.82,13.9,6.56,14.77,14.85.11,1.11.29,2.22.46,3.41,1.85.15,3.61.2,5.34.43,5.55.77,8.48,5.22,7,10.62-.61,2.24-1.32,4.45-2,6.67-1.53,5.14-5.1,7.78-10.3,8.37-4.62.53-9.25,1-13.87,1.48-2.81.31-3.72,1.95-2.49,4.49a32.26,32.26,0,0,1,2.24,4.77c.23.8-.49,1.87-.77,2.82-.9-.44-2.13-.65-2.62-1.37a35.21,35.21,0,0,1-2.71-5.34,6.47,6.47,0,0,1,5.19-9.15c4.77-.57,9.56-1.05,14.35-1.5,3.91-.37,6.24-2.15,7.37-5.83.64-2.06,1.28-4.12,1.84-6.21.93-3.46-.56-5.68-4.11-6.07-1.43-.16-2.89-.08-4.33-.22a4,4,0,0,1-4-3.53c-.36-2-.52-4-1-5.92a11.63,11.63,0,0,0-10.21-8.87C148.23,140.31,144.63,140.08,141,139.8Zm45.84-42.17c0-1.51.27-2.76-.08-3.81-.29-.86-1.25-2-2-2.11-2.66-.25-5.36-.1-8.81-.1.75,1.43,1,2.81,1.7,3.08C180.47,95.81,183.47,96.59,186.81,97.63Z"/><path class="cls-6" d="M150.13,150.66c1.8.05,2.86,1,2.89,2.77a2.51,2.51,0,0,1-2.57,2.82,2.54,2.54,0,0,1-3-2.62A2.6,2.6,0,0,1,150.13,150.66Z"/><path class="cls-6" d="M145,90.69c.2-1.86,1.12-3,2.91-2.93a2.84,2.84,0,0,1,0,5.68C146.07,93.46,145.19,92.31,145,90.69Z"/></g></g></g></g></svg>